<svg width="375" height="821" viewBox="0 0 375 821" fill="none" xmlns="http://www.w3.org/2000/svg">
<path d="M326.205 821H348.494L372.93 148.178L373.193 140.956L375 -43.9994H331.325C333.434 26.2115 350.602 61.1164 373.193 140.956L363.253 141.094C332.43 85.6819 277.41 -43.9994 277.41 -43.9994C277.41 -43.9994 241.867 -43.9986 216.265 -43.9994C235.442 4.41259 287.892 109.261 344.277 141.357C245.723 95.7797 187.751 -1.20453 171.084 -43.9994C147.59 -44.0001 156.626 -44.0002 125 -43.9994C183.554 97.5452 295.582 143.898 344.277 149.382L277.108 821H304.819L358.735 148.178H365.663L326.205 821Z" fill="url(#paint0_linear_542_37)"/>
<path d="M373.193 140.956C350.602 61.1164 333.434 26.2115 331.325 -43.9994H375L373.193 140.956ZM373.193 140.956L363.253 141.094M373.193 140.956L372.93 148.178M365.663 148.178L326.205 821H348.494L372.93 148.178M365.663 148.178H358.735M365.663 148.178H372.93M358.735 148.178L304.819 821H277.108L344.277 149.382M358.735 148.178L344.277 149.382M344.277 149.382V141.358M344.277 149.382C295.582 143.898 183.554 97.5452 125 -43.9994C156.627 -44.0002 147.59 -44.0001 171.084 -43.9994C187.751 -1.20453 245.723 95.7797 344.277 141.358M344.277 141.358L363.253 141.094M344.277 141.358C287.892 109.261 235.442 4.41259 216.265 -43.9994C241.867 -43.9986 277.41 -43.9994 277.41 -43.9994C277.41 -43.9994 332.43 85.6819 363.253 141.094" stroke="url(#paint1_linear_542_37)"/>
<path d="M48.6 821H26.4L2.06124 148.178L1.8 140.956L0 -43.9994H43.5C41.4 26.2115 24.3 61.1164 1.8 140.956L11.7 141.094C42.4 85.6819 97.2 -43.9994 97.2 -43.9994C97.2 -43.9994 132.6 -43.9986 158.1 -43.9994C139 4.41259 86.76 109.261 30.6 141.357C128.76 95.7797 186.5 -1.20453 203.1 -43.9994C226.5 -44.0001 217.5 -44.0002 249 -43.9994C190.68 97.5452 79.1 143.898 30.6 149.382L97.5 821H69.9L16.2 148.178H9.3L48.6 821Z" fill="url(#paint2_linear_542_37)"/>
<path d="M1.8 140.956C24.3 61.1164 41.4 26.2115 43.5 -43.9994H0C0 -43.9994 1.09706 68.7266 1.8 140.956ZM1.8 140.956C5.66619 141.01 7.83381 141.04 11.7 141.094M1.8 140.956C1.90202 143.777 1.95922 145.358 2.06124 148.178M9.3 148.178C24.6476 410.931 48.6 821 48.6 821H26.4C26.4 821 11.5661 410.931 2.06124 148.178M9.3 148.178C11.9946 148.178 13.5054 148.178 16.2 148.178M9.3 148.178C6.47309 148.178 4.88815 148.178 2.06124 148.178M16.2 148.178C37.1712 410.931 69.9 821 69.9 821H97.5C97.5 821 56.7261 411.665 30.6 149.382M16.2 148.178C21.8236 148.648 24.9765 148.912 30.6 149.382M30.6 149.382C30.6 146.248 30.6 141.358 30.6 141.358M30.6 149.382C79.1 143.898 190.68 97.5452 249 -43.9994C217.5 -44.0002 226.5 -44.0001 203.1 -43.9994C186.5 -1.20453 128.76 95.7797 30.6 141.358M30.6 141.358C30.6 141.358 19.0809 141.197 11.7 141.094M30.6 141.358C86.76 109.261 139 4.41259 158.1 -43.9994C132.6 -43.9986 97.2 -43.9994 97.2 -43.9994C97.2 -43.9994 42.4 85.6819 11.7 141.094" stroke="url(#paint3_linear_542_37)"/>
<defs>
<linearGradient id="paint0_linear_542_37" x1="250" y1="-44" x2="250" y2="821" gradientUnits="userSpaceOnUse">
<stop stop-color="#E08F6B"/>
<stop offset="1" stop-color="#E08F6B" stop-opacity="0.3"/>
</linearGradient>
<linearGradient id="paint1_linear_542_37" x1="250" y1="-44" x2="250" y2="821" gradientUnits="userSpaceOnUse">
<stop stop-color="#E08F6B"/>
<stop offset="1" stop-color="#E08F6B" stop-opacity="0.3"/>
</linearGradient>
<linearGradient id="paint2_linear_542_37" x1="124.5" y1="-44" x2="124.5" y2="821" gradientUnits="userSpaceOnUse">
<stop stop-color="#E08F6B"/>
<stop offset="1" stop-color="#E08F6B" stop-opacity="0.3"/>
</linearGradient>
<linearGradient id="paint3_linear_542_37" x1="124.5" y1="-44" x2="124.5" y2="821" gradientUnits="userSpaceOnUse">
<stop stop-color="#E08F6B"/>
<stop offset="1" stop-color="#E08F6B" stop-opacity="0.3"/>
</linearGradient>
</defs>
</svg>
