<svg width="483" height="1080" viewBox="0 0 483 1080" fill="none" xmlns="http://www.w3.org/2000/svg">
<path d="M388.923 1080H431.896L479.01 239.945L479.516 230.928L483 0.000703722H398.795C402.86 87.663 435.961 131.244 479.516 230.928L460.352 231.1C400.924 161.915 294.846 0.000703722 294.846 0.000703722C294.846 0.000703722 226.32 0.0017184 176.959 0.000703722C213.932 60.4458 315.055 191.355 423.766 231.429C233.754 174.523 121.984 53.4325 89.8506 0.000703722C44.5542 -0.000181576 61.9759 -0.000286117 1 0.000703722C113.893 176.727 329.883 234.601 423.766 241.448L294.265 1080H347.692L451.641 239.945H464.998L388.923 1080Z" fill="url(#paint0_linear_659_78)"/>
<path d="M479.516 230.928C435.961 131.244 402.86 87.663 398.795 0.000703722H483L479.516 230.928ZM479.516 230.928L460.352 231.1M479.516 230.928L479.01 239.945M464.998 239.945L388.923 1080H431.896L479.01 239.945M464.998 239.945H451.641M464.998 239.945H479.01M451.641 239.945L347.692 1080H294.265L423.766 241.448M451.641 239.945L423.766 241.448M423.766 241.448V231.429M423.766 241.448C329.883 234.601 113.893 176.727 0.999992 0.000703722C61.9759 -0.000286117 44.5542 -0.000181576 89.8506 0.000703722C121.984 53.4325 233.754 174.523 423.766 231.429M423.766 231.429L460.352 231.1M423.766 231.429C315.055 191.355 213.932 60.4458 176.959 0.000703722C226.32 0.0017184 294.846 0.000703722 294.846 0.000703722C294.846 0.000703722 400.924 161.915 460.352 231.1" stroke="url(#paint1_linear_659_78)"/>
<defs>
<linearGradient id="paint0_linear_659_78" x1="242" y1="0" x2="242" y2="1080" gradientUnits="userSpaceOnUse">
<stop stop-color="#E08F6B"/>
<stop offset="1" stop-color="#E08F6B" stop-opacity="0.3"/>
</linearGradient>
<linearGradient id="paint1_linear_659_78" x1="242" y1="0" x2="242" y2="1080" gradientUnits="userSpaceOnUse">
<stop stop-color="#E08F6B"/>
<stop offset="1" stop-color="#E08F6B" stop-opacity="0.3"/>
</linearGradient>
</defs>
</svg>
