<svg width="483" height="1080" viewBox="0 0 483 1080" fill="none" xmlns="http://www.w3.org/2000/svg">
<path d="M94.0771 1080H51.1036L3.99003 239.945L3.48434 230.928L0 0.000703722H84.2048C80.1398 87.663 47.0386 131.244 3.48434 230.928L22.6482 231.1C82.0755 161.915 188.154 0.000703722 188.154 0.000703722C188.154 0.000703722 256.68 0.0017184 306.041 0.000703722C269.068 60.4458 167.945 191.355 59.2337 231.429C249.246 174.523 361.016 53.4325 393.149 0.000703722C438.446 -0.000181576 421.024 -0.000286117 482 0.000703722C369.107 176.727 153.117 234.601 59.2337 241.448L188.735 1080H135.308L31.359 239.945H18.0024L94.0771 1080Z" fill="url(#paint0_linear_659_79)"/>
<path d="M3.48434 230.928C47.0386 131.244 80.1398 87.663 84.2048 0.000703722H0C0 0.000703722 2.12362 140.745 3.48434 230.928ZM3.48434 230.928C10.9683 230.995 15.1642 231.033 22.6482 231.1M3.48434 230.928C3.68182 234.449 3.79254 236.424 3.99003 239.945M18.0024 239.945C47.7114 568.007 94.0771 1080 94.0771 1080H51.1036C51.1036 1080 22.389 568.007 3.99003 239.945M18.0024 239.945C23.2185 239.945 26.143 239.945 31.359 239.945M18.0024 239.945C12.5302 239.945 9.46221 239.945 3.99003 239.945M31.359 239.945C71.9538 568.007 135.308 1080 135.308 1080H188.735C188.735 1080 109.807 568.923 59.2337 241.448M31.359 239.945C42.2448 240.532 48.348 240.861 59.2337 241.448M59.2337 241.448C59.2337 237.535 59.2337 231.429 59.2337 231.429M59.2337 241.448C153.117 234.601 369.107 176.727 482 0.000703722C421.024 -0.000286117 438.446 -0.000181576 393.149 0.000703722C361.016 53.4325 249.246 174.523 59.2337 231.429M59.2337 231.429C59.2337 231.429 36.9357 231.229 22.6482 231.1M59.2337 231.429C167.945 191.355 269.068 60.4458 306.041 0.000703722C256.68 0.0017184 188.154 0.000703722 188.154 0.000703722C188.154 0.000703722 82.0755 161.915 22.6482 231.1" stroke="url(#paint1_linear_659_79)"/>
<defs>
<linearGradient id="paint0_linear_659_79" x1="241" y1="0" x2="241" y2="1080" gradientUnits="userSpaceOnUse">
<stop stop-color="#E08F6B"/>
<stop offset="1" stop-color="#E08F6B" stop-opacity="0.3"/>
</linearGradient>
<linearGradient id="paint1_linear_659_79" x1="241" y1="0" x2="241" y2="1080" gradientUnits="userSpaceOnUse">
<stop stop-color="#E08F6B"/>
<stop offset="1" stop-color="#E08F6B" stop-opacity="0.3"/>
</linearGradient>
</defs>
</svg>
